<?xml version="1.0" standalone="no"?>
<!DOCTYPE svg PUBLIC "-//W3C//DTD SVG 20010904//EN"
 "http://www.w3.org/TR/2001/REC-SVG-20010904/DTD/svg10.dtd">
<svg version="1.0" xmlns="http://www.w3.org/2000/svg"
 width="256.000000pt" height="256.000000pt" viewBox="0 0 256.000000 256.000000"
 preserveAspectRatio="xMidYMid meet">

<g transform="translate(0.000000,256.000000) scale(0.100000,-0.100000)"
fill="#000000" stroke="none">
<path d="M366 2549 c-62 -15 -153 -68 -197 -116 -22 -24 -55 -74 -72 -111
l-32 -67 0 -975 0 -975 32 -67 c44 -93 100 -151 191 -196 l76 -37 761 0 761 0
76 37 c91 45 147 103 191 196 l32 67 0 976 0 975 -37 76 c-45 91 -103 147
-196 191 l-67 32 -740 2 c-426 1 -756 -3 -779 -8z m1535 -224 c23 -16 53 -50
66 -74 l23 -44 0 -927 0 -927 -23 -44 c-13 -24 -43 -57 -66 -74 l-43 -30 -733
0 -733 0 -43 30 c-23 17 -53 50 -66 74 l-23 45 2 937 3 937 30 43 c17 23 50
53 74 66 l45 23 722 -2 722 -3 43 -30z"/>
<path d="M1045 1897 c-62 -21 -97 -42 -137 -84 -114 -117 -111 -307 5 -421
120 -118 309 -117 425 1 118 120 117 309 -1 425 -76 75 -202 109 -292 79z"/>
<path d="M739 1201 c-86 -86 -126 -155 -136 -239 -11 -96 39 -176 132 -211
144 -54 636 -54 780 0 127 47 167 170 102 312 -24 53 -116 160 -168 198 l-28
20 -52 -35 c-143 -99 -345 -99 -488 -1 -28 19 -53 35 -57 35 -4 0 -42 -35 -85
-79z"/>
<path d="M2310 1951 l0 -201 50 0 c114 0 143 46 138 216 -3 113 -3 114 -35
146 -27 27 -41 32 -93 36 l-60 4 0 -201z"/>
<path d="M2310 1251 l0 -201 51 0 c111 0 142 48 137 216 -3 113 -3 114 -35
146 -27 27 -41 32 -93 36 l-60 4 0 -201z"/>
<path d="M2310 551 l0 -201 51 0 c111 0 142 48 137 216 -3 113 -3 114 -35 146
-27 27 -41 32 -93 36 l-60 4 0 -201z"/>
</g>
</svg>
