<?xml version="1.0" standalone="no"?>
<!DOCTYPE svg PUBLIC "-//W3C//DTD SVG 20010904//EN"
 "http://www.w3.org/TR/2001/REC-SVG-20010904/DTD/svg10.dtd">
<svg version="1.0" xmlns="http://www.w3.org/2000/svg"
 width="256.000000pt" height="256.000000pt" viewBox="0 0 256.000000 256.000000"
 preserveAspectRatio="xMidYMid meet">

<g transform="translate(0.000000,256.000000) scale(0.100000,-0.100000)"
fill="#000000" stroke="none">
<path d="M797 2546 c-253 -45 -469 -163 -613 -335 -179 -213 -230 -492 -137
-743 36 -96 127 -230 208 -306 l65 -61 -21 -58 c-25 -65 -61 -122 -125 -194
-63 -71 -73 -95 -64 -152 8 -55 3 -49 59 -71 148 -58 315 -13 652 175 l77 43
68 -70 c162 -166 350 -250 624 -278 l132 -14 167 -101 c222 -135 312 -173 416
-179 85 -5 155 14 155 40 0 8 -23 36 -51 63 -70 69 -125 155 -149 232 -33 107
-32 110 74 215 141 140 202 269 213 443 18 316 -195 597 -547 721 -51 18 -66
28 -71 47 -13 50 -72 156 -123 223 -125 164 -336 293 -566 345 -113 26 -337
33 -443 15z m363 -202 c163 -30 302 -99 415 -205 316 -296 235 -740 -176 -954
-109 -56 -206 -83 -364 -99 -140 -14 -119 -6 -435 -173 -192 -101 -187 -101
-145 -11 37 78 60 160 69 245 l5 51 -54 42 c-133 103 -228 232 -260 355 -84
324 177 662 575 746 107 22 263 24 370 3z"/>
</g>
</svg>
