<?xml version="1.0" standalone="no"?>
<!DOCTYPE svg PUBLIC "-//W3C//DTD SVG 20010904//EN"
 "http://www.w3.org/TR/2001/REC-SVG-20010904/DTD/svg10.dtd">
<svg version="1.0" xmlns="http://www.w3.org/2000/svg"
 width="256.000000pt" height="256.000000pt" viewBox="0 0 256.000000 256.000000"
 preserveAspectRatio="xMidYMid meet">

<g transform="translate(0.000000,256.000000) scale(0.100000,-0.100000)"
fill="#000000" stroke="none">
<path d="M1140 2554 c-140 -18 -309 -68 -425 -126 -243 -122 -462 -341 -583
-583 -229 -460 -149 -1040 195 -1416 106 -116 138 -137 172 -113 40 29 27 60
-62 153 -217 226 -327 497 -327 811 0 311 109 584 324 809 225 235 520 361
846 361 328 0 624 -127 850 -366 210 -221 320 -498 320 -804 0 -306 -110 -583
-320 -804 -226 -238 -523 -366 -849 -366 -238 0 -328 53 -301 175 12 52 62
169 77 178 5 3 33 -1 63 -10 67 -19 139 -6 199 37 60 44 134 201 135 285 0
113 -48 171 -199 239 -63 28 -103 53 -111 68 -35 62 -2 236 72 388 56 114 162
230 209 230 15 0 68 -19 119 -41 73 -34 103 -42 151 -42 108 -1 180 55 236
183 44 100 50 178 19 243 -31 65 -69 94 -202 151 -98 42 -122 49 -178 48 -146
-1 -312 -110 -465 -307 -294 -378 -439 -924 -325 -1229 25 -65 88 -139 141
-167 22 -11 39 -21 39 -23 0 -2 -15 -35 -34 -72 -42 -86 -56 -135 -56 -199 1
-151 119 -231 360 -242 354 -17 692 117 951 376 238 237 358 511 376 851 18
352 -117 692 -376 951 -182 182 -382 293 -631 350 -83 19 -331 33 -410 23z
m562 -456 c176 -74 195 -115 125 -268 -54 -120 -103 -133 -257 -66 -58 25
-118 46 -135 46 -48 0 -126 -44 -181 -101 -137 -144 -227 -357 -228 -544 -1
-78 2 -96 24 -135 23 -41 36 -50 140 -101 173 -84 188 -117 122 -262 -32 -69
-45 -86 -75 -100 -51 -25 -71 -22 -181 28 -113 51 -146 78 -175 144 -117 272
67 874 367 1202 109 119 237 198 320 199 18 0 78 -19 134 -42z"/>
</g>
</svg>
